# xmcd
#
# Track frame offsets:
#	150
#	21277
#	40865
#	57382
#	72071
#	83004
#	93519
#	107622
#	120599
#	138172
#	151199
#	169569
#	179356
#
# Disc length: 2635 seconds
#
# Revision: 0
# Processed by: cddbd v1.4PL0 Copyright (c) Steve Scherf et al.
# Submitted via: audiograbber 1.81.03
#
DISCID=9c0a490d
DTITLE=Unknown - The Best Of Blues
DYEAR=1900
DGENRE=Blues
TTITLE0=Guess That's Why They Call It The Blues
TTITLE1=Still Got The Blues
TTITLE2=My Baby Just Cares For Me
TTITLE3=Couldn't Get It Right
TTITLE4=Mean Woman Blues
TTITLE5=Maybellene
TTITLE6=That Ole Devil Called Love
TTITLE7=Send Me Some Loving
TTITLE8=What's A Woman
TTITLE9=Let's Work Together
TTITLE10=Kansas City
TTITLE11=Lawdy Miss Clawdy
TTITLE12=Stop
EXTD=
EXTT0=
EXTT1=
EXTT2=
EXTT3=
EXTT4=
EXTT5=
EXTT6=
EXTT7=
EXTT8=
EXTT9=
EXTT10=
EXTT11=
EXTT12=
PLAYORDER=
